<svg id="Layer_1" data-name="Layer 1" xmlns="http://www.w3.org/2000/svg" viewBox="0 0 189 178"><defs><style>.cls-1{fill:#15285e;}.cls-2{fill:#f0f2f7;stroke:#f7f8f9;stroke-miterlimit:10;}</style></defs><title>play_knap</title><rect class="cls-1" x="0.5" y="0.5" width="188" height="177" rx="11.5" ry="11.5"/><path d="M469,232a11,11,0,0,1,11,11V397a11,11,0,0,1-11,11H304a11,11,0,0,1-11-11V243a11,11,0,0,1,11-11H469m0-1H304a12,12,0,0,0-12,12V397a12,12,0,0,0,12,12H469a12,12,0,0,0,12-12V243a12,12,0,0,0-12-12Z" transform="translate(-292 -231)"/><path class="cls-2" d="M338.5,276.65v85.7a1.37,1.37,0,0,0,1.95,1.24l92.36-42.84a1.38,1.38,0,0,0,0-2.5l-92.36-42.84A1.37,1.37,0,0,0,338.5,276.65Z" transform="translate(-292 -231)"/></svg>
